<svg id="icono" fill="#ff4242" width="50px" height="50px" viewBox="-3.2 -3.2 38.40 38.40" version="1.1"
    xmlns="http://www.w3.org/2000/svg" stroke="#ff4242" stroke-width="0.00032"
    transform="rotate(0)matrix(1, 0, 0, 1, 0, 0)">
    <g id="SVGRepo_bgCarrier" stroke-width="0">
        <path transform="translate(-3.2, -3.2), scale(1.2)"
            d="M16,26.125529632629718C18.0439242327864,25.934333968969643,19.945228840924145,27.784094042571656,21.94781372701364,27.3326122321077C24.02950884958123,26.863295056441764,25.993416179993567,25.4821769696613,27.057696951919002,23.632577112068706C28.111387987787786,21.801381020492563,27.693129543946718,19.527463626620523,27.6544586365699,17.415107481034124C27.619871195463638,15.525806227536375,27.642554737997624,13.599888797500983,26.842687332149154,11.887911095948862C26.066541817851093,10.226705996300504,24.373640462239937,9.282369038066292,23.197482506898545,7.8757217096467365C21.80404440256313,6.209214266594589,21.223464174905626,3.7196811213617913,19.251319592459602,2.8088778746114933C17.27332133389677,1.8953712017229352,14.71566474222295,2.014609875069922,12.815776609259721,3.081097865867294C10.928898902604969,4.140282551184515,10.845624647495749,6.920648332374593,9.274979904432556,8.409021527702027C7.778440724138566,9.827170865128135,4.6726714481910925,9.499754326849216,3.989522102296137,11.445026552683021C3.299882912740407,13.408778650742674,6.215153064550421,15.109858065120486,6.190870224684502,17.191043991003326C6.160965407265455,19.7540673223875,3.1312040820773053,21.93082630269388,3.838430069553553,24.39452561429072C4.486594331532067,26.652476925916936,7.1123124301878935,28.1717957015419,9.438012919636774,28.50282178745951C11.775203414934934,28.83548329104191,13.649515110294814,26.345402028681068,16,26.125529632629718"
            fill="#ffffff" strokewidth="0">
        </path>
    </g>
    <g id="SVGRepo_tracerCarrier" stroke-linecap="round" stroke-linejoin="round" stroke="#000000" stroke-width="0.192">
    </g>
    <g id="SVGRepo_iconCarrier">
        <title>film</title>
        <path
            d="M30.335 26.445c-0.128-0.221-0.538-0.289-1.231-0.202-1.275 0.165-2.201-0.251-2.778-1.251-0.437-0.756-0.55-1.516-0.339-2.28s0.836-1.854 1.874-3.272l0.649-0.904c1.928-2.663 2.323-4.979 1.186-6.95-1.157-2.006-4.5-1.837-6.903-0.806-1.944-4.009-6.040-6.78-10.793-6.78-6.628 0-12 5.373-12 12s5.372 12 12 12c6.627 0 12-5.373 12-12 0-1.469-0.277-2.871-0.76-4.171 0.811-0.291 1.781-0.502 2.696-0.536 1.202-0.044 2.29 0.208 2.722 0.956 0.963 1.669 0.498 3.641-1.395 5.913l-0.388 0.466c-2.214 2.657-2.743 4.984-1.591 6.982 0.466 0.806 1.207 1.381 2.225 1.727 1.018 0.345 1.879 0.312 2.585-0.096 0.35-0.202 0.431-0.468 0.241-0.796zM6.5 18.562c-1.381 0-2.5-1.119-2.5-2.5 0-1.38 1.119-2.5 2.5-2.5s2.5 1.119 2.5 2.5c0 1.381-1.119 2.5-2.5 2.5zM12 24.062c-1.381 0-2.5-1.119-2.5-2.5s1.119-2.5 2.5-2.5 2.5 1.119 2.5 2.5-1.119 2.5-2.5 2.5zM11.020 16.062c0-0.552 0.449-1 1.001-1s1 0.447 1 1c0 0.553-0.448 1-1 1s-1.001-0.447-1.001-1zM12 13.062c-1.381 0-2.5-1.119-2.5-2.5s1.119-2.5 2.5-2.5 2.5 1.119 2.5 2.5c0 1.381-1.119 2.5-2.5 2.5zM17.5 18.562c-1.381 0-2.5-1.119-2.5-2.5 0-1.38 1.119-2.5 2.5-2.5s2.5 1.119 2.5 2.5c0 1.381-1.119 2.5-2.5 2.5z">
        </path>
    </g>
</svg>